<svg  viewBox="0 0 701 603" fill="none" xmlns="http://www.w3.org/2000/svg">
<path d="M378.231 86.3L545.397 179.102C556.673 185.361 563.667 197.243 563.667 210.14V391.86C563.667 404.757 556.673 416.639 545.397 422.898L378.231 515.7C367.514 521.649 354.486 521.649 343.769 515.7L176.603 422.898C165.327 416.639 158.333 404.757 158.333 391.86V210.14C158.333 197.243 165.327 185.361 176.603 179.102L343.769 86.3C354.486 80.3507 367.514 80.3507 378.231 86.3Z" stroke="#71DF56" stroke-width="45"/>
<path d="M383.444 116.5L515.969 189.535C530.809 197.714 540.026 213.316 540.026 230.26V371.74C540.026 388.684 530.809 404.286 515.969 412.465L383.444 485.5C369.472 493.2 352.528 493.2 338.556 485.5L206.031 412.465C191.191 404.286 181.974 388.684 181.974 371.74V230.26C181.974 213.316 191.191 197.714 206.031 189.536L338.556 116.5C352.528 108.8 369.472 108.8 383.444 116.5Z" stroke="#1D2333" stroke-width="23"/>
<path d="M513.75 339.486L583.343 379.665C588.757 382.791 592.093 388.568 592.093 394.821V475.179C592.093 481.432 588.757 487.209 583.343 490.335L513.75 530.514C508.335 533.641 501.665 533.641 496.25 530.514L426.657 490.335C421.243 487.209 417.907 481.432 417.907 475.179V394.821C417.907 388.568 421.243 382.791 426.657 379.665L496.25 339.486C501.665 336.359 508.335 336.359 513.75 339.486Z" fill="#7750F8" stroke="#1D2333" stroke-width="25"/>
</svg>
