<svg width="701" height="603" viewBox="0 0 701 603" fill="none" xmlns="http://www.w3.org/2000/svg">
<path d="M380.497 45.9515L563.635 148.219C582.777 158.909 594.638 179.117 594.638 201.042V400.958C594.638 422.883 582.777 443.091 563.635 453.781L380.497 556.049C362.165 566.286 339.835 566.286 321.503 556.049L138.365 453.781C119.223 443.091 107.362 422.883 107.362 400.958V201.042C107.362 179.117 119.223 158.909 138.365 148.219L321.503 45.9514C339.835 35.7143 362.165 35.7143 380.497 45.9515Z" stroke="#1D2333" stroke-width="41"/>
<path d="M368.231 86.3L535.397 179.102C546.673 185.361 553.667 197.243 553.667 210.14V391.86C553.667 404.757 546.673 416.639 535.397 422.898L368.231 515.7C357.514 521.649 344.486 521.649 333.769 515.7L166.603 422.898C155.327 416.639 148.333 404.757 148.333 391.86V210.14C148.333 197.243 155.327 185.361 166.603 179.102L333.769 86.3C344.486 80.3507 357.514 80.3507 368.231 86.3Z" stroke="#71DF56" stroke-width="45"/>
<path d="M373.444 116.5L505.969 189.535C520.809 197.714 530.026 213.316 530.026 230.26V371.74C530.026 388.684 520.809 404.286 505.969 412.465L373.444 485.5C359.472 493.2 342.528 493.2 328.556 485.5L196.031 412.465C181.191 404.286 171.974 388.684 171.974 371.74V230.26C171.974 213.316 181.191 197.714 196.031 189.536L328.556 116.5C342.528 108.8 359.472 108.8 373.444 116.5Z" stroke="#1D2333" stroke-width="23"/>
<path d="M513.75 339.486L583.343 379.665C588.757 382.791 592.093 388.568 592.093 394.821V475.179C592.093 481.432 588.757 487.209 583.343 490.335L513.75 530.514C508.335 533.641 501.665 533.641 496.25 530.514L426.657 490.335C421.243 487.209 417.907 481.432 417.907 475.179V394.821C417.907 388.568 421.243 382.791 426.657 379.665L496.25 339.486C501.665 336.359 508.335 336.359 513.75 339.486Z" fill="#7750F8" stroke="#1D2333" stroke-width="25"/>
</svg>
