<svg id="svg-profile" viewBox="0 0 20 20" preserveAspectRatio="xMinYMin meet">
      <path d="M10,2c4.418,0,8,3.582,8,8c0,4.418-3.582,8-8,8c-4.418,0-8-3.582-8-8C2,5.582,5.582,2,10,2 M10,0C4.486,0,0,4.486,0,10c0,5.514,4.486,10,10,10c5.514,0,10-4.486,10-10C20,4.486,15.514,0,10,0L10,0z"></path>
      <path d="M10,7c0.551,0,1,0.449,1,1s-0.449,1-1,1S9,8.551,9,8S9.449,7,10,7 M10,5C8.343,5,7,6.343,7,8c0,1.656,1.343,3,3,3c1.656,0,3-1.344,3-3C13,6.343,11.656,5,10,5L10,5z"></path>
      <path d="M14.866,15.025C14.43,13.29,12.871,12,11,12H9c-1.871,0-3.43,1.29-3.866,3.025C5.678,15.553,6.308,15.988,7,16.317V16c0-1.104,0.897-2,2-2h2c1.103,0,2,0.896,2,2v0.317C13.692,15.988,14.322,15.553,14.866,15.025z"></path>
    </svg>