<svg id="svg-comment" viewBox="0 0 20 20" preserveAspectRatio="xMinYMin meet">
      <path d="M15,2c1.654,0,3,1.257,3,2.803v6.404c0,1.546-1.346,2.803-3,2.803H7.98H7.508l-0.422,0.211L2,16.764v-5.557V10V4.803C2,3.257,3.346,2,5,2H15 M15,0H5C2.238,0,0,2.15,0,4.803V10v1.207V20l7.98-3.99H15c2.762,0,5-2.15,5-4.803V4.803C20,2.15,17.762,0,15,0L15,0z"></path>
      <g>
        <path d="M14,5H6C5.447,5,5,5.448,5,6c0,0.553,0.447,1,1,1h8c0.553,0,1-0.447,1-1C15,5.448,14.553,5,14,5z M10,9H6c-0.553,0-1,0.447-1,1s0.447,1,1,1h4c0.553,0,1-0.447,1-1S10.553,9,10,9z"></path>
      </g>
    </svg>