<svg id="svg-forums" viewBox="0 0 20 20" preserveAspectRatio="xMinYMin meet">
      <path d="M16,0H4C1.791,0,0,1.592,0,3.556V6v2v4.444C0,14.408,1.791,16,4,16h2l4,4l4-4h2c2.209,0,4-1.592,4-3.556V8V6V3.556C20,1.592,18.209,0,16,0z M18,12.444C18,13.287,17.084,14,16,14h-2h-0.828l-0.586,0.586L10,17.172l-2.586-2.586L6.829,14H6H4c-1.084,0-2-0.713-2-1.556V8h16V12.444z M2,6V3.556C2,2.712,2.916,2,4,2h12c1.084,0,2,0.712,2,1.556V6H2z"></path>
      <rect x="4" y="3" width="2" height="2"></rect>
      <rect x="10" y="3" width="2" height="2"></rect>
      <rect x="7" y="3" width="2" height="2"></rect>
    </svg>