<svg xmlns="http://www.w3.org/2000/svg" width="20" height="20" viewBox="0 0 20 20">
  <defs>
    <style>
      .cls-1 {
        fill: #afb0c0;
        fill-rule: evenodd;
      }
    </style>
  </defs>
  <path id="Groups_Icon" data-name="Groups Icon" class="cls-1" d="M49,244a3,3,0,1,1-3,3,3,3,0,0,1,3-3m0-2a5,5,0,1,0,5,5,5,5,0,0,0-5-5h0Zm-7,20v-2a4,4,0,0,1,4-4h6a4,4,0,0,1,4,4v2h2v-2a6,6,0,0,0-6-6H46a6,6,0,0,0-6,6v2h2Zm17-11.95a2.05,2.05,0,1,1,0-4.1v-2a4.05,4.05,0,0,0,0,8.1v-2Zm-20,0a2.05,2.05,0,1,0,0-4.1v-2a4.05,4.05,0,0,1,0,8.1v-2Z" transform="translate(-39 -242)"/>
</svg>
