<svg xmlns="http://www.w3.org/2000/svg" width="25.4" height="25.376" viewBox="0 0 25.4 25.376">
  <defs>
    <style>
      .cls-1 {
        fill: #fff;
        fill-rule: evenodd;
      }
    </style>
  </defs>
  <path id="Join_Group_Icon" data-name="Join Group Icon" class="cls-1" d="M1715.64,700.853a3.809,3.809,0,1,1-3.81,3.808,3.814,3.814,0,0,1,3.81-3.808m0-2.539a6.347,6.347,0,1,0,6.35,6.347,6.345,6.345,0,0,0-6.35-6.347h0Zm12.7,10.218a2.6,2.6,0,1,1,0-5.2V700.79a5.141,5.141,0,0,0,0,10.282v-2.54Zm-25.39,0a2.6,2.6,0,0,0,0-5.2V700.79a5.141,5.141,0,0,1,0,10.282v-2.54Zm16.5,12.631h-7.62v-2.538h7.62v2.538Zm-5.08,2.539v-7.616h2.54V723.7h-2.54Zm-2.54-10.155a7.615,7.615,0,0,0-7.61,7.616V723.7h2.54v-2.539a5.083,5.083,0,0,1,5.07-5.077v-2.539Zm7.62,0v2.539a5.085,5.085,0,0,1,5.08,5.077V723.7h2.54v-2.539A7.617,7.617,0,0,0,1719.45,713.547Z" transform="translate(-1702.94 -698.312)"/>
</svg>
