<svg xmlns="http://www.w3.org/2000/svg" width="18" height="20" viewBox="0 0 18 20">
  <defs>
    <style>
      .cls-1 {
        fill: #afb0c0;
        fill-rule: evenodd;
      }
    </style>
  </defs>
  <path id="Notifications_Icon" data-name="Notifications Icon" class="cls-1" d="M1662,46h-16.03a1,1,0,0,1-.95-0.73,1.052,1.052,0,0,1,.39-1.158c0.01-.006,2.23-1.746,2.23-7.508a6.35,6.35,0,1,1,12.69,0c0,5.763,2.23,7.5,2.25,7.519a1.069,1.069,0,0,1,.37,1.159A1.007,1.007,0,0,1,1662,46Zm-13.94-2.065h11.85a14.959,14.959,0,0,1-1.58-7.331,4.345,4.345,0,1,0-8.68,0A14.825,14.825,0,0,1,1648.06,43.937ZM1653.98,50a3.6,3.6,0,0,1-1.65-.394,3.116,3.116,0,0,1-1.2-1.054,0.959,0.959,0,0,1,.44-1.408,1.285,1.285,0,0,1,1.62.384,0.87,0.87,0,0,0,.34.3,1.039,1.039,0,0,0,.69.083,0.884,0.884,0,0,0,.56-0.382,1.288,1.288,0,0,1,1.62-.381,0.961,0.961,0,0,1,.44,1.409,3.249,3.249,0,0,1-2.02,1.349A3.71,3.71,0,0,1,1653.98,50Z" transform="translate(-1645 -30)"/>
</svg>
