<svg id="svg-private" viewBox="0 0 20 20" preserveAspectRatio="xMinYMin meet">
      <path d="M11,11H9c-0.553,0-1,0.447-1,1s0.447,1,1,1v1c0,0.553,0.447,1,1,1s1-0.447,1-1v-1c0.553,0,1-0.447,1-1S11.553,11,11,11z"></path>
      <path d="M16,6.142V6c0-3.313-2.687-6-6-6S4,2.687,4,6v0.142C2.278,6.588,1,8.139,1,10v6c0,2.209,1.791,4,4,4h10c2.209,0,4-1.791,4-4v-6C19,8.139,17.722,6.588,16,6.142z M10,2c2.206,0,4,1.794,4,4H6C6,3.794,7.794,2,10,2z M17,16c0,1.103-0.897,2-2,2H5c-1.103,0-2-0.897-2-2v-6c0-1.103,0.897-2,2-2h10c1.103,0,2,0.897,2,2V16z"></path>
    </svg>