<svg xmlns="http://www.w3.org/2000/svg" width="20" height="20" viewBox="0 0 20 20">
  <defs>
    <style>
      .cls-1 {
        fill: #afb0c0;
        fill-rule: evenodd;
        opacity: 0.4;
      }
    </style>
  </defs>
  <path id="React_Icon" data-name="React Icon" class="cls-1" d="M1813.88,293.993h-13.06a2.815,2.815,0,0,1-2.82-2.8v-6.3a2.814,2.814,0,0,1,2.82-2.8h2.1l3.39-7.509a0.989,0.989,0,0,1,.91-0.587,3.714,3.714,0,0,1,3.73,3.695l0.03,2.3h4.99c0.15,0-.15-0.022,0,0,0.75,0.113,1.96.246,2,1s-0.01,2.141,0,3l-1.3,7.618A2.818,2.818,0,0,1,1813.88,293.993ZM1804.99,292h8.88a0.825,0.825,0,0,0,.83-0.684l1.26-8.1a0.8,0.8,0,0,0-.14-0.582,2.162,2.162,0,0,0-.85-0.634c-0.04-.007.05-0.006,0,0h-4.99c-0.55,0-1-1.45-1-2l-0.02-2.3a1.708,1.708,0,0,0-1.15-1.6l-2.82,6.9v9Zm-4-8a1.063,1.063,0,0,0-.99.9v6.3a0.814,0.814,0,0,0,.82.8h2.17v-8h-2Z" transform="translate(-1798 -274)"/>
</svg>
