<svg id="svg-thumbs-up" viewBox="0 0 20 20" preserveAspectRatio="xMinYMin meet">
      <path d="M15.896,19.999c-0.01,0-0.021,0-0.03,0H2.826C1.268,19.999,0,18.743,0,17.201v-6.302c0-1.543,1.269-2.797,2.826-2.797h2.096l3.391-7.515C8.473,0.229,8.83,0,9.223,0c2.063,0,3.742,1.659,3.742,3.698l0.026,2.3h4.996c0.152-0.003-0.149-0.023,0,0c0.753,0.111,1.962,0.245,1.999,1c0.037,0.757-0.011,2.143,0,3.003l-1.295,7.624C18.483,18.982,17.284,19.999,15.896,19.999z M6.995,18.005h8.881c0.003,0,0.007,0,0.01,0c0.418,0,0.77-0.292,0.83-0.684l1.262-8.106c0.031-0.205-0.02-0.412-0.145-0.583c-0.132-0.178-0.621-0.601-0.845-0.634c-0.045-0.008,0.045-0.006,0,0h-4.996c-0.553,0-1-1.451-1-2.001l-0.026-2.3c0-0.733-0.477-1.36-1.144-1.6l-2.828,6.9V18.005z M2.997,10c-0.456,0-0.999,0.457-0.999,0.899v6.302c0,0.442,0.371,0.804,0.827,0.804h2.17V10H2.997z"></path>
    </svg>