<svg id="svg-remove-friend" viewBox="0 0 20 20" preserveAspectRatio="xMinYMin meet">
      <path d="M10,13c-1.305,0-2.403-0.838-2.816-2H5.101c0.464,2.282,2.48,4,4.899,4s4.436-1.718,4.899-4h-2.083C12.403,12.162,11.305,13,10,13z M7,7H5v2h2V7z M13,7v2h2V7H13z"></path>
      <path d="M17.738,8C17.903,8.64,18,9.308,18,10c0,4.418-3.582,8-8,8s-8-3.582-8-8c0-4.418,3.582-8,8-8c0.692,0,1.359,0.097,2,0.262V0.201C11.354,0.07,10.685,0,10,0C4.477,0,0,4.478,0,10
      c0,5.523,4.477,10,10,10c5.522,0,10-4.477,10-10c0-0.685-0.069-1.354-0.201-2H17.738z"></path>
      <rect x="14" y="2" width="6" height="2"></rect>
    </svg>