<svg xmlns="http://www.w3.org/2000/svg" width="25.375" height="25.375" viewBox="0 0 25.375 25.375">
  <defs>
    <style>
      .cls-1 {
        fill: #afb0c0;
        fill-rule: evenodd;
      }
    </style>
  </defs>
  <path id="Search_Icon" data-name="Search Icon" class="cls-1" d="M659.862,264.244a7.617,7.617,0,1,1-7.617,7.617,7.625,7.625,0,0,1,7.617-7.617m0-2.538a10.155,10.155,0,1,0,10.155,10.155,10.155,10.155,0,0,0-10.155-10.155h0Zm14.18,19.254-3.978-3.979a11.442,11.442,0,0,1-1.414,2.176l3.6,3.6a1.059,1.059,0,0,1,0,1.492,1.057,1.057,0,0,1-1.492,0l-3.6-3.6a11.466,11.466,0,0,1-2.175,1.414l3.978,3.978A3.593,3.593,0,1,0,674.042,280.96Z" transform="translate(-649.719 -261.719)"/>
</svg>
