<svg id="svg-shopping-bag" viewBox="0 0 20 20" preserveAspectRatio="xMinYMin meet">
      <path d="M15.904,6c0.148,0.117,0.347,0.386,0.406,0.557l0.001,0.017l0.676,11.421c-0.005,0.003-0.01,0.005-0.013,0.006H3.029c-0.004-0.001-0.01-0.003-0.016-0.006L3.689,6.573L3.69,6.556C3.749,6.386,3.947,6.117,4.095,6H15.904 M16.075,4H3.924C2.806,4,1.692,5.563,1.692,6.455L1,18.154C1,19.048,1.906,20,3.024,20h13.95C18.093,20,19,19.048,19,18.154L18.308,6.455C18.308,5.563,17.193,4,16.075,4L16.075,4z"></path>
      <path d="M8,8V3.893C8,2.849,8.849,2,9.893,2H10h0.054C11.098,2,12,2.849,12,3.893V8h2V3.893C14,1.743,12.257,0,10.107,0H9.893C7.743,0,6,1.743,6,3.893V8H8z"></path>
    </svg>