<svg id="svg-twitter" viewBox="0 0 18 18" preserveAspectRatio="xMinYMin meet">
      <path d="M18,3.617c-0.675,0.322-1.351,0.43-2.139,0.537c0.788-0.43,1.351-1.076,1.576-1.937c-0.675,0.43-1.463,0.646-2.362,0.861C14.399,2.431,13.388,2,12.375,2c-1.912,0-3.601,1.617-3.601,3.554c0,0.323,0,0.538,0.113,0.754C5.851,6.2,3.038,4.8,1.238,2.646C0.9,3.185,0.788,3.724,0.788,4.478c0,1.184,0.675,2.261,1.688,2.907c-0.563,0-1.125-0.216-1.688-0.431l0,0c0,1.723,1.237,3.122,2.925,3.446c-0.338,0.107-0.675,0.107-1.013,0.107c-0.225,0-0.45,0-0.675-0.107c0.45,1.399,1.8,2.476,3.487,2.476C4.274,13.846,2.7,14.384,0.9,14.384c-0.338,0-0.563,0-0.9,0C1.688,15.354,3.601,16,5.625,16c6.75,0,10.462-5.385,10.462-10.015c0-0.108,0-0.323,0-0.431C16.875,5.016,17.549,4.371,18,3.617z"></path>
    </svg>